<mxfile host="app.diagrams.net" agent="Mozilla/5.0 (Windows NT 10.0; Win64; x64) AppleWebKit/537.36 (KHTML, like Gecko) Chrome/133.0.0.0 Safari/537.36" version="26.0.16">
  <diagram name="Page-1" id="xIGuVNf8DaTheFTmCo7W">
    <mxGraphModel dx="2334" dy="2046" grid="1" gridSize="10" guides="1" tooltips="1" connect="1" arrows="1" fold="1" page="0" pageScale="1" pageWidth="850" pageHeight="1100" math="0" shadow="0">
      <root>
        <mxCell id="0" />
        <mxCell id="1" parent="0" />
        <mxCell id="p4mLMvW0bjpNHDyFoMVl-3" value="Continuous Internal Assessment" style="rounded=0;whiteSpace=wrap;html=1;" vertex="1" parent="1">
          <mxGeometry x="-110" y="-950" width="260" height="60" as="geometry" />
        </mxCell>
        <mxCell id="p4mLMvW0bjpNHDyFoMVl-5" value="Theory Course" style="rounded=0;whiteSpace=wrap;html=1;" vertex="1" parent="1">
          <mxGeometry x="-190" y="-800" width="120" height="60" as="geometry" />
        </mxCell>
        <mxCell id="p4mLMvW0bjpNHDyFoMVl-6" value="Laboratory Course" style="rounded=0;whiteSpace=wrap;html=1;" vertex="1" parent="1">
          <mxGeometry x="-50" y="-800" width="120" height="60" as="geometry" />
        </mxCell>
        <mxCell id="p4mLMvW0bjpNHDyFoMVl-7" value="Project Work" style="rounded=0;whiteSpace=wrap;html=1;" vertex="1" parent="1">
          <mxGeometry x="90" y="-800" width="120" height="60" as="geometry" />
        </mxCell>
        <mxCell id="p4mLMvW0bjpNHDyFoMVl-8" value="&lt;strong data-end=&quot;354&quot; data-start=&quot;334&quot;&gt;Evaluation of CO using the&amp;nbsp;&lt;/strong&gt;&lt;div&gt;&lt;b&gt;performance in Continuous&lt;/b&gt;&lt;/div&gt;&lt;div&gt;&lt;div&gt;&amp;nbsp;Internal Assessment&lt;/div&gt;&lt;/div&gt;" style="rounded=0;whiteSpace=wrap;html=1;" vertex="1" parent="1">
          <mxGeometry x="-200" y="-565" width="400" height="65" as="geometry" />
        </mxCell>
        <mxCell id="p4mLMvW0bjpNHDyFoMVl-9" value="End Semester Examination" style="rounded=0;whiteSpace=wrap;html=1;" vertex="1" parent="1">
          <mxGeometry x="230" y="-960" width="260" height="60" as="geometry" />
        </mxCell>
        <mxCell id="p4mLMvW0bjpNHDyFoMVl-10" value="Direct" style="rounded=0;whiteSpace=wrap;html=1;" vertex="1" parent="1">
          <mxGeometry x="400" y="-860" width="120" height="60" as="geometry" />
        </mxCell>
        <mxCell id="p4mLMvW0bjpNHDyFoMVl-11" value="Indirect" style="rounded=0;whiteSpace=wrap;html=1;" vertex="1" parent="1">
          <mxGeometry x="550" y="-860" width="120" height="60" as="geometry" />
        </mxCell>
        <mxCell id="p4mLMvW0bjpNHDyFoMVl-12" value="1. Internal Assessment Tests&lt;div&gt;&lt;span style=&quot;background-color: transparent; color: light-dark(rgb(0, 0, 0), rgb(255, 255, 255));&quot;&gt;2. Assignments/Tutorials&lt;/span&gt;&lt;div style=&quot;&quot;&gt;3.End Semester Exam&lt;/div&gt;&lt;/div&gt;" style="rounded=0;whiteSpace=wrap;html=1;align=left;" vertex="1" parent="1">
          <mxGeometry x="400" y="-770" width="140" height="100" as="geometry" />
        </mxCell>
        <mxCell id="p4mLMvW0bjpNHDyFoMVl-13" value="Course Exit Survey" style="rounded=0;whiteSpace=wrap;html=1;align=left;" vertex="1" parent="1">
          <mxGeometry x="570" y="-770" width="140" height="100" as="geometry" />
        </mxCell>
        <mxCell id="p4mLMvW0bjpNHDyFoMVl-14" value="&lt;strong data-end=&quot;354&quot; data-start=&quot;334&quot;&gt;Evaluation of CO using the&amp;nbsp;&lt;/strong&gt;&lt;div&gt;&lt;b&gt;performance in&amp;nbsp;&lt;/b&gt;&lt;span style=&quot;background-color: transparent; color: light-dark(rgb(0, 0, 0), rgb(255, 255, 255));&quot;&gt;End Semester Examination&lt;/span&gt;&lt;/div&gt;" style="rounded=0;whiteSpace=wrap;html=1;" vertex="1" parent="1">
          <mxGeometry x="240" y="-570" width="200" height="60" as="geometry" />
        </mxCell>
        <mxCell id="p4mLMvW0bjpNHDyFoMVl-15" value="&lt;p data-end=&quot;686&quot; data-start=&quot;655&quot;&gt;&lt;strong data-end=&quot;684&quot; data-start=&quot;655&quot;&gt;&lt;strong style=&quot;background-color: transparent; color: light-dark(rgb(0, 0, 0), rgb(255, 255, 255));&quot; data-end=&quot;684&quot; data-start=&quot;655&quot;&gt;&amp;nbsp;Calculation of Overall&amp;nbsp;&lt;/strong&gt;CO Attainment&amp;nbsp;&lt;/strong&gt;&lt;/p&gt;&lt;p data-end=&quot;686&quot; data-start=&quot;655&quot;&gt;&lt;span style=&quot;background-color: transparent; color: light-dark(rgb(0, 0, 0), rgb(255, 255, 255));&quot;&gt;(R2017: &lt;/span&gt;&lt;strong style=&quot;background-color: transparent; color: light-dark(rgb(0, 0, 0), rgb(255, 255, 255));&quot; data-end=&quot;736&quot; data-start=&quot;701&quot;&gt;0.80 × Direct + 0.20 × Indirect)&lt;/strong&gt;&lt;/p&gt;" style="shape=parallelogram;perimeter=parallelogramPerimeter;whiteSpace=wrap;html=1;fixedSize=1;" vertex="1" parent="1">
          <mxGeometry x="-80" y="-450" width="500" height="80" as="geometry" />
        </mxCell>
        <mxCell id="p4mLMvW0bjpNHDyFoMVl-16" value="Tools: Reviews" style="rounded=0;whiteSpace=wrap;html=1;" vertex="1" parent="1">
          <mxGeometry x="90" y="-700" width="120" height="60" as="geometry" />
        </mxCell>
        <mxCell id="p4mLMvW0bjpNHDyFoMVl-17" value="Tools: Performance, Viva Voce &amp;amp; Record" style="rounded=0;whiteSpace=wrap;html=1;" vertex="1" parent="1">
          <mxGeometry x="-50" y="-700" width="120" height="60" as="geometry" />
        </mxCell>
        <mxCell id="p4mLMvW0bjpNHDyFoMVl-18" value="Tools: Internal Assessment Tests, Assignments &amp;amp; Tutorials" style="rounded=0;whiteSpace=wrap;html=1;" vertex="1" parent="1">
          <mxGeometry x="-190" y="-700" width="120" height="60" as="geometry" />
        </mxCell>
        <mxCell id="p4mLMvW0bjpNHDyFoMVl-19" value="Attained?" style="rhombus;whiteSpace=wrap;html=1;" vertex="1" parent="1">
          <mxGeometry x="120" y="-340" width="80" height="80" as="geometry" />
        </mxCell>
        <mxCell id="p4mLMvW0bjpNHDyFoMVl-20" value="&lt;span style=&quot;font-family: &amp;quot;Times New Roman&amp;quot;; font-size: 15px; background-color: rgb(251, 251, 251);&quot;&gt;Increase the Competency and Level of attainment for the next academic year&lt;/span&gt;" style="rounded=0;whiteSpace=wrap;html=1;" vertex="1" parent="1">
          <mxGeometry x="-150" y="-330" width="200" height="80" as="geometry" />
        </mxCell>
        <mxCell id="p4mLMvW0bjpNHDyFoMVl-21" value="Take appropriate measures in&lt;br&gt;Content Delivery Method&amp;nbsp;&lt;div&gt;&amp;nbsp;Assessment Method&lt;/div&gt;" style="rounded=0;whiteSpace=wrap;html=1;" vertex="1" parent="1">
          <mxGeometry x="100" y="-220" width="170" height="60" as="geometry" />
        </mxCell>
        <mxCell id="p4mLMvW0bjpNHDyFoMVl-22" value="Discuss in &lt;strong data-end=&quot;1044&quot; data-start=&quot;1006&quot;&gt;PAC&amp;nbsp;&lt;/strong&gt;" style="rounded=0;whiteSpace=wrap;html=1;" vertex="1" parent="1">
          <mxGeometry x="120" y="-130" width="120" height="60" as="geometry" />
        </mxCell>
        <mxCell id="p4mLMvW0bjpNHDyFoMVl-23" value="Implement necessary changes in the next academic year." style="rounded=0;whiteSpace=wrap;html=1;" vertex="1" parent="1">
          <mxGeometry x="120" y="-50" width="120" height="60" as="geometry" />
        </mxCell>
      </root>
    </mxGraphModel>
  </diagram>
</mxfile>
